<?xml version="1.0" standalone="no"?>
<!DOCTYPE svg PUBLIC "-//W3C//DTD SVG 20010904//EN"
 "http://www.w3.org/TR/2001/REC-SVG-20010904/DTD/svg10.dtd">
<svg version="1.0" xmlns="http://www.w3.org/2000/svg"
 width="512.000000pt" height="512.000000pt" viewBox="0 0 512.000000 512.000000"
 preserveAspectRatio="xMidYMid meet">

<g transform="translate(0.000000,512.000000) scale(0.100000,-0.100000)"
fill="#000000" stroke="none">
<path d="M1124 4553 c-6 -5 -13 -16 -17 -25 -3 -10 -11 -389 -18 -843 -10
-705 -10 -828 2 -840 8 -8 37 -22 64 -33 46 -18 50 -22 50 -53 0 -34 0 -34
-50 -37 -51 -3 -322 22 -330 30 -2 2 -1 17 4 34 8 30 23 38 93 49 l36 6 6 72
c7 75 27 624 47 1251 10 312 10 370 -2 377 -22 15 -445 7 -461 -9 -20 -20 -28
-425 -22 -1047 7 -630 -1 -572 90 -631 l51 -33 6 -92 c4 -51 7 -116 7 -146 l0
-54 -77 -34 -76 -35 7 -343 c10 -481 34 -1307 42 -1399 l6 -77 52 -6 c60 -8
383 8 394 19 4 4 7 403 7 886 0 1014 15 894 -122 962 -75 37 -83 44 -83 70 0
28 1 28 58 28 79 -1 323 -18 329 -24 13 -13 -20 -79 -56 -111 l-41 -37 0 -888
c0 -814 1 -889 17 -901 12 -11 56 -14 182 -14 91 0 187 4 213 8 45 8 48 10 54
45 7 36 1 718 -13 1404 l-6 338 -99 42 -98 43 0 37 0 37 53 5 c86 9 528 29
532 24 3 -2 8 -28 12 -58 10 -66 11 -66 200 -76 l134 -7 -3 -26 c-3 -24 -7
-26 -73 -33 -38 -4 -143 -12 -233 -17 -90 -6 -168 -14 -174 -17 -11 -7 -4
-422 8 -476 5 -22 14 -29 43 -35 20 -3 324 -7 676 -7 l640 -1 3 242 2 243 -22
5 c-13 3 -122 18 -243 33 -173 21 -220 30 -222 42 -6 34 13 39 172 50 88 6
164 15 169 20 4 4 7 27 4 49 -2 22 1 43 7 45 13 5 513 -3 593 -10 l62 -6 0
-53 0 -53 -99 -51 -98 -50 -7 -123 c-8 -160 -9 -1648 -1 -1656 4 -4 102 -8
219 -10 180 -4 215 -2 228 11 17 17 19 53 43 772 33 977 33 988 16 1007 -9 9
-43 32 -76 50 -59 33 -60 34 -63 82 -2 33 1 52 10 57 7 5 92 9 189 9 198 0
189 4 189 -80 0 -33 -5 -39 -73 -85 l-74 -50 -7 -395 c-3 -217 -9 -616 -13
-887 -6 -478 -6 -493 13 -500 22 -9 351 -8 388 1 18 4 28 16 36 44 15 55 28
312 35 697 4 187 12 502 19 700 14 415 27 363 -102 430 l-77 40 -3 100 c-2 55
-1 123 3 150 6 50 6 50 73 85 l67 35 3 844 c1 583 -1 848 -8 855 -12 12 -403
13 -441 1 l-22 -7 8 -702 c4 -385 10 -768 14 -851 l6 -150 64 -25 c59 -24 87
-51 74 -72 -5 -10 -272 -11 -337 -2 -40 6 -46 10 -46 30 0 28 9 36 76 74 l51
29 6 353 c4 194 7 572 7 841 l0 487 -152 0 c-168 0 -316 -14 -332 -30 -6 -6
-13 -66 -15 -138 -5 -185 29 -1287 45 -1460 7 -72 12 -76 114 -101 65 -16 65
-16 68 -53 l3 -38 -264 0 c-145 0 -298 3 -340 6 l-76 7 -3 81 -3 81 -85 27
c-47 15 -111 35 -142 44 l-58 15 0 64 c0 41 4 64 13 67 6 2 64 1 127 -3 502
-32 492 -32 506 -1 4 10 9 103 12 207 3 147 0 194 -10 208 -15 21 -167 37
-350 37 l-108 0 0 30 c0 17 1 30 3 30 2 0 29 -5 60 -10 66 -13 102 0 136 49
29 40 26 65 -9 94 -16 14 -30 29 -30 34 0 28 23 83 35 83 7 0 27 12 44 26 36
30 41 72 13 97 -25 23 -53 21 -114 -5 l-50 -21 -25 32 c-27 35 -90 71 -123 71
-44 0 -102 -45 -130 -100 -16 -30 -16 -133 -1 -173 10 -26 8 -29 -24 -48 -19
-12 -35 -25 -35 -30 0 -5 11 -32 25 -59 18 -36 31 -50 47 -50 44 0 98 -23 98
-42 0 -22 7 -22 -335 -3 -143 8 -272 15 -287 15 -24 0 -28 4 -28 30 l0 29 107
3 108 3 7 50 c11 74 14 302 5 312 -5 4 -141 10 -302 11 l-293 4 -4 -29 c-5
-45 12 -276 22 -300 5 -12 25 -26 47 -33 46 -15 49 -18 57 -51 l6 -26 -148 -8
c-82 -4 -155 -11 -163 -15 -17 -11 -24 -134 -14 -267 6 -86 9 -95 30 -103 24
-9 237 -25 478 -36 l147 -6 0 -74 0 -74 -112 -1 c-138 -1 -217 -11 -229 -30
-5 -8 -9 -66 -9 -130 l0 -116 -31 -7 c-17 -3 -148 -6 -291 -6 l-259 0 3 32 c3
29 9 34 68 57 l65 26 7 75 c3 41 14 260 23 485 33 830 42 1140 33 1150 -11 12
-438 19 -454 8z m-265 -142 c10 -7 13 -32 9 -109 -2 -56 -7 -105 -12 -109 -10
-11 -162 -10 -173 0 -10 10 -10 160 0 200 7 27 9 27 85 27 42 0 83 -4 91 -9z
m2990 0 c10 -7 13 -32 9 -109 -2 -56 -7 -105 -12 -109 -4 -4 -40 -9 -80 -11
-95 -5 -106 5 -106 97 0 112 6 129 49 134 70 7 126 7 140 -2z m545 3 c13 -5
16 -25 16 -110 0 -103 0 -105 -26 -114 -31 -12 -134 -13 -152 -2 -9 6 -12 36
-10 113 l3 104 35 6 c49 9 115 10 134 3z m-3005 -11 c23 -6 23 -8 19 -110 -3
-78 -7 -106 -18 -113 -18 -12 -140 -13 -157 -2 -18 11 -25 86 -16 157 7 51 11
60 33 66 33 9 109 10 139 2z m-531 -379 l3 -81 -47 -7 c-82 -11 -134 -7 -140
9 -4 9 -3 49 1 91 l7 75 86 -3 87 -3 3 -81z m2990 0 l3 -81 -38 -7 c-21 -3
-62 -6 -90 -6 l-53 0 0 84 c0 58 4 86 13 90 6 2 46 4 87 3 l75 -2 3 -81z m552
2 l0 -83 -37 -7 c-21 -3 -62 -6 -90 -6 l-53 0 0 64 c0 36 4 76 10 90 9 25 13
26 90 26 l80 0 0 -84z m-3022 68 c20 -6 22 -12 22 -84 0 -91 1 -90 -105 -90
l-73 0 -6 34 c-6 30 -1 100 10 134 4 13 109 17 152 6z m1572 -109 c16 -19 7
-31 -35 -45 -33 -11 -53 -40 -40 -60 10 -16 55 -11 126 13 l66 23 -18 -55
c-25 -71 -24 -86 6 -99 35 -16 35 -59 -1 -68 -39 -10 -102 2 -138 27 -63 43
-104 130 -92 195 12 61 95 107 126 69z m-640 -42 l63 -6 -6 -93 c-3 -51 -8
-98 -12 -104 -7 -11 -173 -12 -320 -1 l-90 6 -3 35 c-7 67 8 158 26 163 27 7
274 8 342 0z m-1482 -89 c21 -6 22 -12 22 -89 0 -118 3 -115 -96 -115 l-84 0
0 83 c0 126 1 127 74 127 33 0 71 -3 84 -6z m2991 0 l32 -7 -3 -96 -3 -96 -87
-3 -88 -3 0 100 c0 95 1 100 23 104 37 7 92 7 126 1z m560 0 l31 -6 0 -68 c0
-37 -3 -82 -6 -99 l-6 -31 -84 0 -84 0 0 99 c0 95 1 100 23 104 36 7 92 7 126
1z m-3035 -10 l46 -7 0 -88 c0 -48 -3 -94 -6 -103 -5 -13 -23 -16 -90 -16
l-84 0 0 94 c0 128 10 137 134 120z m-504 -291 c8 -7 12 -142 6 -178 l-7 -36
-82 3 -82 3 -3 55 c-5 86 6 158 26 164 19 5 134 -4 142 -11z m3015 -82 c4 -49
4 -98 1 -109 -9 -26 -50 -35 -121 -27 l-55 7 0 93 c0 52 3 100 6 109 5 13 22
16 84 16 l78 0 7 -89z m549 52 c3 -21 6 -70 6 -109 l0 -71 -31 -7 c-17 -3 -55
-3 -84 0 l-53 6 -6 54 c-3 30 -3 79 0 109 l7 55 77 0 77 0 7 -37z m-3024 1
c11 -28 13 -146 4 -181 -7 -25 -37 -29 -128 -17 l-46 7 0 62 c0 34 3 83 6 109
l7 46 74 0 c70 0 74 -1 83 -26z m845 -54 c116 -5 386 -17 600 -25 215 -9 406
-19 425 -23 l35 -8 3 -78 c2 -44 -1 -83 -5 -87 -5 -5 -96 -2 -203 6 -258 20
-436 20 -443 1 -12 -31 -28 -215 -25 -286 l3 -75 125 -26 c180 -39 180 -39
180 -95 l0 -46 -34 26 c-40 30 -52 32 -60 10 -4 -10 11 -35 44 -72 55 -62 60
-77 28 -88 -18 -5 -30 3 -67 47 -102 120 -114 130 -144 122 l-27 -8 55 -83 55
-82 -28 0 c-22 0 -41 15 -91 70 -45 50 -69 70 -87 70 -13 0 -24 -3 -24 -7 0
-4 18 -37 40 -74 44 -73 48 -89 25 -89 -8 0 -24 -9 -35 -20 -18 -18 -20 -33
-20 -129 0 -61 4 -112 8 -115 5 -3 100 -17 213 -31 270 -34 271 -34 280 -68 9
-32 -2 -41 -40 -32 -17 4 -32 2 -36 -5 -3 -6 8 -42 26 -81 25 -54 30 -75 22
-87 -23 -37 -46 -24 -113 64 -86 113 -101 127 -129 116 -21 -7 -19 -11 38 -87
33 -44 61 -83 61 -87 0 -5 -18 -8 -39 -8 -34 0 -43 5 -72 43 -55 71 -102 117
-121 117 -27 0 -22 -28 17 -94 20 -32 35 -60 33 -61 -8 -7 -719 -12 -723 -5
-6 10 -8 270 -1 277 2 3 105 9 227 14 122 4 227 13 232 18 6 6 7 54 2 123 l-7
114 -151 18 c-83 9 -154 19 -157 22 -5 6 -14 304 -8 304 1 1 75 5 163 10 88 5
168 12 179 16 17 7 18 18 14 185 -2 98 -7 182 -11 186 -7 6 -332 20 -524 22
-103 1 -113 9 -113 96 0 52 3 64 18 68 31 8 173 7 387 -3z m-1415 -207 l33 -6
-7 -111 c-12 -176 -6 -166 -87 -166 l-69 0 0 114 c0 62 3 128 6 145 6 29 9 31
49 31 23 0 57 -3 75 -7z m2995 0 l48 -6 -5 -133 c-3 -74 -7 -137 -11 -140 -3
-3 -35 -9 -70 -11 l-64 -5 -6 53 c-9 69 -9 144 -1 203 7 51 11 53 109 39z
m559 0 l38 -6 -4 -133 c-2 -73 -7 -136 -10 -140 -4 -3 -36 -9 -72 -11 l-66 -6
0 145 c0 80 3 148 7 151 8 9 56 9 107 0z m-2995 -19 c11 -4 13 -26 7 -120 -4
-63 -11 -126 -16 -140 -9 -23 -14 -25 -72 -22 l-63 3 -3 105 c-2 58 0 124 3
148 l6 43 62 -6 c34 -4 68 -9 76 -11z m-519 -908 c5 -14 12 -59 16 -100 l7
-75 -34 -5 c-19 -3 -53 -7 -76 -8 -39 -3 -42 -1 -47 26 -3 15 -6 61 -6 102 l0
73 33 4 c83 10 97 8 107 -17z m574 -18 c3 -13 9 -57 13 -99 l6 -77 -72 -7
c-40 -4 -75 -4 -79 -1 -3 4 -8 49 -10 100 -5 107 -8 103 84 105 46 1 52 -2 58
-21z m2431 -30 c3 -18 5 -62 3 -98 l-3 -65 -72 -3 -73 -3 0 101 0 100 70 0 69
0 6 -32z m565 5 c3 -3 5 -46 5 -96 l0 -92 -72 -3 -73 -3 0 100 0 100 28 4 c28
5 103 -2 112 -10z m-3556 -220 c3 -10 8 -50 12 -89 l6 -71 -32 -7 c-18 -3 -56
-6 -85 -6 l-52 0 -7 46 c-10 74 -7 132 7 137 6 3 42 6 79 6 55 1 68 -2 72 -16z
m569 -8 c4 -8 9 -48 13 -89 8 -85 11 -83 -96 -88 l-64 -3 -8 40 c-4 22 -7 63
-7 92 -1 49 0 52 27 56 68 10 130 7 135 -8z m2421 -21 c3 -9 6 -48 6 -89 l0
-72 -37 -7 c-21 -3 -57 -6 -79 -6 -50 0 -54 9 -54 118 l0 72 79 0 c63 0 80 -3
85 -16z m574 -95 l3 -86 -38 -7 c-21 -3 -57 -6 -79 -6 -50 0 -54 9 -54 118 l0
73 83 -3 82 -3 3 -86z m-3545 -145 c2 -25 3 -63 0 -84 -5 -34 -9 -38 -42 -44
-20 -3 -55 -6 -77 -6 -49 0 -54 10 -54 107 l0 62 58 4 c31 2 69 4 83 5 24 2
27 -2 32 -44z m571 4 c9 -35 7 -94 -4 -122 -9 -25 -13 -26 -84 -26 l-73 0 -7
31 c-3 17 -6 53 -6 80 0 54 2 55 106 58 56 1 62 -1 68 -21z m2375 6 l32 -7 -3
-75 -3 -76 -38 -9 c-21 -5 -57 -6 -81 -3 l-43 7 -7 55 c-8 70 0 102 27 107 36
7 83 7 116 1z m570 -20 l32 -7 -3 -75 -3 -76 -38 -9 c-21 -5 -57 -6 -81 -3
l-44 7 -6 53 c-9 69 0 104 27 109 36 7 83 7 116 1z m-3508 -269 c3 -44 3 -83
-1 -88 -3 -4 -43 -10 -87 -14 l-81 -6 -7 88 c-6 69 -5 89 6 96 8 5 48 8 89 7
l75 -3 6 -80z m563 59 c3 -9 6 -48 6 -89 0 -84 -1 -85 -106 -85 l-61 0 -7 61
c-12 115 -11 117 32 122 93 9 130 7 136 -9z m2400 -35 c3 -17 6 -58 6 -90 l0
-59 -90 0 -90 0 0 90 0 90 84 0 84 0 6 -31z m570 -26 c3 -21 6 -62 6 -90 l0
-53 -90 0 -90 0 0 90 0 90 84 0 83 0 7 -37z m-3550 -194 c2 -2 7 -38 11 -81 6
-69 5 -77 -12 -82 -33 -10 -143 -10 -153 0 -6 6 -13 48 -17 94 l-6 83 86 -5
c48 -2 88 -6 91 -9z m526 -9 l47 0 7 -81 c4 -45 5 -83 3 -86 -10 -10 -165 -15
-171 -5 -3 6 -9 45 -13 87 -7 86 1 99 51 90 16 -3 50 -5 76 -5z m2394 -16 l47
-7 -3 -81 -3 -81 -85 0 -85 0 -7 50 c-5 28 -5 67 -2 88 6 36 7 37 48 37 24 0
64 -3 90 -6z m570 -20 l46 -7 0 -84 0 -84 -87 3 -88 3 -3 88 -3 87 44 0 c24 0
65 -3 91 -6z m-3482 -249 c10 -39 15 -231 6 -241 -12 -11 -151 -16 -167 -5
-11 7 -16 40 -19 130 -3 66 -2 127 2 136 5 13 20 15 88 13 81 -3 82 -3 90 -33z
m557 16 c17 -11 29 -91 30 -197 1 -84 2 -84 -104 -84 -60 0 -74 3 -80 18 -4 9
-10 72 -13 139 -4 112 -3 121 14 126 34 8 139 7 153 -2z m2382 -17 c12 -7 20
-132 13 -203 l-7 -71 -88 0 c-106 0 -102 -6 -97 160 2 84 7 113 18 121 14 9
144 4 161 -7z m573 -24 c11 -11 13 -241 2 -258 -5 -8 -38 -12 -91 -12 -66 0
-84 3 -89 16 -3 9 -6 67 -6 129 0 145 4 150 104 140 39 -3 75 -10 80 -15z"/>
<path d="M2196 2853 c-17 -4 -18 -14 -14 -109 4 -111 12 -130 51 -120 30 7 37
29 37 124 0 103 -12 121 -74 105z"/>
</g>
</svg>
